<svg width="32" height="32" viewBox="0 0 31 32" fill="none" xmlns="http://www.w3.org/2000/svg">
<path d="M15.0242 3.00165C16.98 2.97091 18.9181 3.36909 20.6972 4.16712C22.3229 4.9073 21.9205 7.74925 23.0937 9.07887C24.2745 10.4347 23.5943 11.9145 27.609 11.9187C31.6237 11.9229 28.5508 15.6035 28.5403 17.5029C28.5528 19.4148 28.238 21.3153 27.609 23.1248C27.0271 24.8143 29.7193 26.3794 28.5403 27.7364C27.3696 29.0634 22.3245 30.1272 20.6972 30.8555C18.9056 31.6106 16.9761 32 15.0263 32C13.0765 32 11.147 31.6106 9.35545 30.8555C7.71923 30.1298 6.26205 29.0659 5.08362 27.7364C3.90455 26.3794 2.99986 24.8143 2.41801 23.1248C1.79671 21.3154 -2.08879 17.5113 1.5081 17.5071C5.10499 17.5029 1.81238 13.72 2.43936 11.9229C3.01929 10.2326 3.92418 8.66715 5.10498 7.31136C6.28595 5.97926 7.74211 4.9089 9.37681 4.17131C11.1473 3.37442 13.0766 2.97485 15.0242 3.00165ZM15.0242 6.95921C13.6667 6.92334 12.3225 7.22932 11.1197 7.84798C10.0498 8.42284 9.13581 9.2408 8.4541 10.2334C7.74884 11.2699 7.23279 12.419 6.92906 13.6292C6.27411 16.1745 9.31714 17.7015 4.80609 19.4413C0.295032 21.1811 7.74806 23.742 8.4541 24.7766C9.13454 25.7703 10.0489 26.5885 11.1197 27.162C12.3297 27.7493 13.6615 28.0548 15.0114 28.0548C16.3613 28.0548 17.5079 29.3032 18.718 28.7159C19.7892 28.1413 23.8921 25.7695 24.5752 24.7766C25.2782 23.7409 24.2719 21.4928 24.5752 20.2845C25.2302 17.7391 26.9612 17.3493 26.3063 14.804C26.0021 13.5947 21.5782 13.5593 19.5611 11.853C17.544 10.1467 19.9733 8.42389 18.903 7.84798C17.708 7.23315 16.3731 6.92727 15.0242 6.95921Z" fill="white"/>
</svg>
