<svg width="84" height="32" viewBox="0 0 84 32" fill="none" xmlns="http://www.w3.org/2000/svg">
<path d="M15.0242 3.00165C16.98 2.97091 18.9181 3.36909 20.6972 4.16712C22.3229 4.9073 21.9205 7.74925 23.0937 9.07887C24.2745 10.4347 23.5943 11.9145 27.609 11.9187C31.6237 11.9229 28.5508 15.6035 28.5403 17.5029C28.5528 19.4148 28.238 21.3153 27.609 23.1248C27.0271 24.8143 29.7193 26.3794 28.5403 27.7364C27.3696 29.0634 22.3245 30.1272 20.6972 30.8555C18.9056 31.6106 16.9761 32 15.0263 32C13.0765 32 11.147 31.6106 9.35545 30.8555C7.71923 30.1298 6.26205 29.0659 5.08362 27.7364C3.90455 26.3794 2.99986 24.8143 2.41801 23.1248C1.79671 21.3154 -2.08879 17.5113 1.5081 17.5071C5.10499 17.5029 1.81238 13.72 2.43936 11.9229C3.01929 10.2326 3.92418 8.66715 5.10498 7.31136C6.28595 5.97926 7.74211 4.9089 9.37681 4.17131C11.1473 3.37442 13.0766 2.97485 15.0242 3.00165ZM15.0242 6.95921C13.6667 6.92334 12.3225 7.22932 11.1197 7.84798C10.0498 8.42284 9.13581 9.2408 8.4541 10.2334C7.74884 11.2699 7.23279 12.419 6.92906 13.6292C6.27411 16.1745 9.31714 17.7015 4.80609 19.4413C0.295032 21.1811 7.74806 23.742 8.4541 24.7766C9.13454 25.7703 10.0489 26.5885 11.1197 27.162C12.3297 27.7493 13.6615 28.0548 15.0114 28.0548C16.3613 28.0548 17.5079 29.3032 18.718 28.7159C19.7892 28.1413 23.8921 25.7695 24.5752 24.7766C25.2782 23.7409 24.2719 21.4928 24.5752 20.2845C25.2302 17.7391 26.9612 17.3493 26.3063 14.804C26.0021 13.5947 21.5782 13.5593 19.5611 11.853C17.544 10.1467 19.9733 8.42389 18.903 7.84798C17.708 7.23315 16.3731 6.92727 15.0242 6.95921Z" fill="#200A3A"/>
<path d="M34.3582 4.01H44.7182C46.6316 4.01 48.2882 4.33667 49.6882 4.99C51.0882 5.64333 52.2316 6.54167 53.1182 7.685C54.0049 8.805 54.6582 10.1233 55.0782 11.64C55.5216 13.1567 55.7432 14.7783 55.7432 16.505C55.7432 18.2317 55.5216 19.8533 55.0782 21.37C54.6582 22.8867 54.0049 24.2167 53.1182 25.36C52.2316 26.48 51.0882 27.3667 49.6882 28.02C48.2882 28.6733 46.6316 29 44.7182 29H34.3582V4.01ZM38.7332 25.43H43.0382C44.7416 25.43 46.1299 25.2083 47.2032 24.765C48.2999 24.2983 49.1516 23.6683 49.7582 22.875C50.3882 22.0583 50.8082 21.1133 51.0182 20.04C51.2516 18.9433 51.3682 17.765 51.3682 16.505C51.3682 15.245 51.2516 14.0783 51.0182 13.005C50.8082 11.9083 50.3882 10.9633 49.7582 10.17C49.1516 9.35333 48.2999 8.72333 47.2032 8.28C46.1299 7.81333 44.7416 7.58 43.0382 7.58H38.7332V25.43ZM59.617 4.01H70.642C72.4154 4.01 73.862 4.26667 74.982 4.78C76.102 5.29333 76.9654 5.935 77.572 6.705C78.1787 7.475 78.587 8.315 78.797 9.225C79.0304 10.135 79.147 10.975 79.147 11.745C79.147 12.515 79.0304 13.355 78.797 14.265C78.587 15.1517 78.1787 15.98 77.572 16.75C76.9654 17.52 76.102 18.1617 74.982 18.675C73.862 19.165 72.4154 19.41 70.642 19.41H63.992V29H59.617V4.01ZM63.992 15.84H70.397C70.887 15.84 71.3887 15.77 71.902 15.63C72.4154 15.49 72.882 15.2683 73.302 14.965C73.7454 14.6383 74.0954 14.2183 74.352 13.705C74.632 13.1683 74.772 12.5033 74.772 11.71C74.772 10.8933 74.6554 10.2167 74.422 9.68C74.1887 9.14333 73.8737 8.72333 73.477 8.42C73.0804 8.09333 72.6254 7.87166 72.112 7.755C71.5987 7.63833 71.0504 7.58 70.467 7.58H63.992V15.84Z" fill="#200A3A"/>
</svg>
